<mxfile host="Electron" modified="2025-09-15T05:43:02.613Z" agent="Mozilla/5.0 (Windows NT 10.0; Win64; x64) AppleWebKit/537.36 (KHTML, like Gecko) draw.io/21.2.8 Chrome/112.0.5615.165 Electron/24.2.0 Safari/537.36" etag="e1EW7UQtpNc1uq0N1TcA" version="21.2.8" type="device">
  <diagram name="Page-1" id="Enwh4mMmY8xoaOdNhbEe">
    <mxGraphModel dx="1036" dy="629" grid="1" gridSize="10" guides="1" tooltips="1" connect="1" arrows="1" fold="1" page="1" pageScale="1" pageWidth="2336" pageHeight="1654" math="0" shadow="0">
      <root>
        <mxCell id="0" />
        <mxCell id="1" parent="0" />
        <mxCell id="Jhbk-T6yyRJ1bSmUcefI-27" value="" style="rounded=1;whiteSpace=wrap;html=1;" vertex="1" parent="1">
          <mxGeometry x="480" y="40" width="120" height="320" as="geometry" />
        </mxCell>
        <mxCell id="Jhbk-T6yyRJ1bSmUcefI-25" value="" style="rounded=1;whiteSpace=wrap;html=1;" vertex="1" parent="1">
          <mxGeometry x="80.81" y="40" width="120" height="320" as="geometry" />
        </mxCell>
        <mxCell id="Jhbk-T6yyRJ1bSmUcefI-2" value="SQL API" style="sketch=0;html=1;dashed=0;whitespace=wrap;fillColor=#2875E2;strokeColor=#ffffff;points=[[0.005,0.63,0],[0.1,0.2,0],[0.9,0.2,0],[0.5,0,0],[0.995,0.63,0],[0.72,0.99,0],[0.5,1,0],[0.28,0.99,0]];verticalLabelPosition=bottom;align=center;verticalAlign=top;shape=mxgraph.kubernetes.icon;prIcon=api" vertex="1" parent="1">
          <mxGeometry x="120.81" y="160" width="40" height="40" as="geometry" />
        </mxCell>
        <mxCell id="Jhbk-T6yyRJ1bSmUcefI-5" value="" style="image;aspect=fixed;perimeter=ellipsePerimeter;html=1;align=center;shadow=0;dashed=0;spacingTop=3;image=img/lib/active_directory/databases.svg;" vertex="1" parent="1">
          <mxGeometry x="120" y="80" width="40.81" height="40" as="geometry" />
        </mxCell>
        <mxCell id="Jhbk-T6yyRJ1bSmUcefI-8" value="" style="endArrow=classic;startArrow=classic;html=1;rounded=0;entryX=0.5;entryY=1;entryDx=0;entryDy=0;exitX=0.5;exitY=0;exitDx=0;exitDy=0;exitPerimeter=0;" edge="1" parent="1" source="Jhbk-T6yyRJ1bSmUcefI-2" target="Jhbk-T6yyRJ1bSmUcefI-5">
          <mxGeometry width="50" height="50" relative="1" as="geometry">
            <mxPoint x="500" y="350" as="sourcePoint" />
            <mxPoint x="550" y="300" as="targetPoint" />
          </mxGeometry>
        </mxCell>
        <mxCell id="Jhbk-T6yyRJ1bSmUcefI-13" value="POST /files" style="rounded=1;arcSize=9;align=left;spacingLeft=5;strokeColor=#4C9AFF;html=1;strokeWidth=2;fontSize=12" vertex="1" parent="1">
          <mxGeometry x="90" y="230" width="100" height="20" as="geometry" />
        </mxCell>
        <mxCell id="Jhbk-T6yyRJ1bSmUcefI-14" value="GET /files" style="rounded=1;arcSize=9;align=left;spacingLeft=5;strokeColor=#4C9AFF;html=1;strokeWidth=2;fontSize=12" vertex="1" parent="1">
          <mxGeometry x="90" y="250" width="100" height="20" as="geometry" />
        </mxCell>
        <mxCell id="Jhbk-T6yyRJ1bSmUcefI-16" value="DELETE /file" style="rounded=1;arcSize=9;align=left;spacingLeft=5;strokeColor=#4C9AFF;html=1;strokeWidth=2;fontSize=12" vertex="1" parent="1">
          <mxGeometry x="90" y="270" width="100" height="20" as="geometry" />
        </mxCell>
        <mxCell id="Jhbk-T6yyRJ1bSmUcefI-26" value="" style="rounded=1;whiteSpace=wrap;html=1;" vertex="1" parent="1">
          <mxGeometry x="280" y="40" width="120" height="320" as="geometry" />
        </mxCell>
        <mxCell id="Jhbk-T6yyRJ1bSmUcefI-3" value="Content API" style="sketch=0;html=1;dashed=0;whitespace=wrap;fillColor=#2875E2;strokeColor=#ffffff;points=[[0.005,0.63,0],[0.1,0.2,0],[0.9,0.2,0],[0.5,0,0],[0.995,0.63,0],[0.72,0.99,0],[0.5,1,0],[0.28,0.99,0]];verticalLabelPosition=bottom;align=center;verticalAlign=top;shape=mxgraph.kubernetes.icon;prIcon=api" vertex="1" parent="1">
          <mxGeometry x="320" y="160" width="40" height="40" as="geometry" />
        </mxCell>
        <mxCell id="Jhbk-T6yyRJ1bSmUcefI-7" value="" style="sketch=0;outlineConnect=0;fontColor=#232F3E;gradientColor=none;fillColor=#3F8624;strokeColor=none;dashed=0;verticalLabelPosition=bottom;verticalAlign=top;align=center;html=1;fontSize=12;fontStyle=0;aspect=fixed;pointerEvents=1;shape=mxgraph.aws4.bucket;" vertex="1" parent="1">
          <mxGeometry x="321.53999999999996" y="80" width="38.46" height="40" as="geometry" />
        </mxCell>
        <mxCell id="Jhbk-T6yyRJ1bSmUcefI-9" value="" style="endArrow=classic;startArrow=classic;html=1;rounded=0;exitX=0.5;exitY=0;exitDx=0;exitDy=0;exitPerimeter=0;" edge="1" parent="1" source="Jhbk-T6yyRJ1bSmUcefI-3" target="Jhbk-T6yyRJ1bSmUcefI-7">
          <mxGeometry width="50" height="50" relative="1" as="geometry">
            <mxPoint x="500" y="350" as="sourcePoint" />
            <mxPoint x="340" y="130" as="targetPoint" />
          </mxGeometry>
        </mxCell>
        <mxCell id="Jhbk-T6yyRJ1bSmUcefI-17" value="GET /file" style="rounded=1;arcSize=9;align=left;spacingLeft=5;strokeColor=#4C9AFF;html=1;strokeWidth=2;fontSize=12" vertex="1" parent="1">
          <mxGeometry x="290" y="230" width="100" height="20" as="geometry" />
        </mxCell>
        <mxCell id="Jhbk-T6yyRJ1bSmUcefI-18" value="POST /file" style="rounded=1;arcSize=9;align=left;spacingLeft=5;strokeColor=#4C9AFF;html=1;strokeWidth=2;fontSize=12" vertex="1" parent="1">
          <mxGeometry x="290" y="250" width="100" height="20" as="geometry" />
        </mxCell>
        <mxCell id="Jhbk-T6yyRJ1bSmUcefI-19" value="DELETE /file" style="rounded=1;arcSize=9;align=left;spacingLeft=5;strokeColor=#4C9AFF;html=1;strokeWidth=2;fontSize=12" vertex="1" parent="1">
          <mxGeometry x="290" y="270" width="100" height="20" as="geometry" />
        </mxCell>
        <mxCell id="Jhbk-T6yyRJ1bSmUcefI-4" value="GenAI API" style="sketch=0;html=1;dashed=0;whitespace=wrap;fillColor=#2875E2;strokeColor=#ffffff;points=[[0.005,0.63,0],[0.1,0.2,0],[0.9,0.2,0],[0.5,0,0],[0.995,0.63,0],[0.72,0.99,0],[0.5,1,0],[0.28,0.99,0]];verticalLabelPosition=bottom;align=center;verticalAlign=top;shape=mxgraph.kubernetes.icon;prIcon=api" vertex="1" parent="1">
          <mxGeometry x="520" y="160" width="40" height="40" as="geometry" />
        </mxCell>
        <mxCell id="Jhbk-T6yyRJ1bSmUcefI-6" value="" style="image;aspect=fixed;perimeter=ellipsePerimeter;html=1;align=center;shadow=0;dashed=0;spacingTop=3;image=img/lib/active_directory/database_cube.svg;" vertex="1" parent="1">
          <mxGeometry x="524" y="80" width="36" height="40" as="geometry" />
        </mxCell>
        <mxCell id="Jhbk-T6yyRJ1bSmUcefI-11" value="" style="endArrow=classic;startArrow=classic;html=1;rounded=0;entryX=0.5;entryY=0;entryDx=0;entryDy=0;entryPerimeter=0;" edge="1" parent="1" target="Jhbk-T6yyRJ1bSmUcefI-4">
          <mxGeometry width="50" height="50" relative="1" as="geometry">
            <mxPoint x="540" y="120" as="sourcePoint" />
            <mxPoint x="550" y="300" as="targetPoint" />
          </mxGeometry>
        </mxCell>
        <mxCell id="Jhbk-T6yyRJ1bSmUcefI-21" value="POST /vectorize" style="rounded=1;arcSize=9;align=left;spacingLeft=5;strokeColor=#4C9AFF;html=1;strokeWidth=2;fontSize=12" vertex="1" parent="1">
          <mxGeometry x="490" y="230" width="100" height="20" as="geometry" />
        </mxCell>
        <mxCell id="Jhbk-T6yyRJ1bSmUcefI-22" value="GET /query" style="rounded=1;arcSize=9;align=left;spacingLeft=5;strokeColor=#4C9AFF;html=1;strokeWidth=2;fontSize=12" vertex="1" parent="1">
          <mxGeometry x="490" y="250" width="100" height="20" as="geometry" />
        </mxCell>
        <mxCell id="Jhbk-T6yyRJ1bSmUcefI-28" value="API Gateway" style="outlineConnect=0;dashed=0;verticalLabelPosition=bottom;verticalAlign=top;align=center;html=1;shape=mxgraph.aws3.api_gateway;fillColor=#D9A741;gradientColor=none;" vertex="1" parent="1">
          <mxGeometry x="320" y="520" width="38.25" height="40" as="geometry" />
        </mxCell>
        <mxCell id="Jhbk-T6yyRJ1bSmUcefI-29" value="" style="endArrow=classic;startArrow=classic;html=1;rounded=0;entryX=0.5;entryY=1;entryDx=0;entryDy=0;exitX=0.5;exitY=0;exitDx=0;exitDy=0;exitPerimeter=0;" edge="1" parent="1" source="Jhbk-T6yyRJ1bSmUcefI-28" target="Jhbk-T6yyRJ1bSmUcefI-25">
          <mxGeometry width="50" height="50" relative="1" as="geometry">
            <mxPoint x="500" y="550" as="sourcePoint" />
            <mxPoint x="550" y="500" as="targetPoint" />
          </mxGeometry>
        </mxCell>
        <mxCell id="Jhbk-T6yyRJ1bSmUcefI-30" value="" style="endArrow=classic;startArrow=classic;html=1;rounded=0;entryX=0.5;entryY=1;entryDx=0;entryDy=0;exitX=0.5;exitY=0;exitDx=0;exitDy=0;exitPerimeter=0;" edge="1" parent="1" source="Jhbk-T6yyRJ1bSmUcefI-28" target="Jhbk-T6yyRJ1bSmUcefI-26">
          <mxGeometry width="50" height="50" relative="1" as="geometry">
            <mxPoint x="500" y="550" as="sourcePoint" />
            <mxPoint x="370" y="420" as="targetPoint" />
          </mxGeometry>
        </mxCell>
        <mxCell id="Jhbk-T6yyRJ1bSmUcefI-31" value="" style="endArrow=classic;startArrow=classic;html=1;rounded=0;entryX=0.5;entryY=1;entryDx=0;entryDy=0;exitX=0.5;exitY=0;exitDx=0;exitDy=0;exitPerimeter=0;" edge="1" parent="1" source="Jhbk-T6yyRJ1bSmUcefI-28" target="Jhbk-T6yyRJ1bSmUcefI-27">
          <mxGeometry width="50" height="50" relative="1" as="geometry">
            <mxPoint x="500" y="550" as="sourcePoint" />
            <mxPoint x="550" y="500" as="targetPoint" />
          </mxGeometry>
        </mxCell>
        <mxCell id="Jhbk-T6yyRJ1bSmUcefI-47" value="" style="rounded=0;whiteSpace=wrap;html=1;" vertex="1" parent="1">
          <mxGeometry x="180" y="630" width="320" height="280" as="geometry" />
        </mxCell>
        <mxCell id="Jhbk-T6yyRJ1bSmUcefI-32" value="" style="sketch=0;pointerEvents=1;shadow=0;dashed=0;html=1;strokeColor=none;fillColor=#505050;labelPosition=center;verticalLabelPosition=bottom;verticalAlign=top;outlineConnect=0;align=center;shape=mxgraph.office.concepts.upload;fontColor=#000000;" vertex="1" parent="1">
          <mxGeometry x="200" y="650" width="30" height="40" as="geometry" />
        </mxCell>
        <mxCell id="Jhbk-T6yyRJ1bSmUcefI-34" value="Instruction" style="rounded=1;arcSize=9;align=left;spacingLeft=5;strokeColor=#4C9AFF;html=1;strokeWidth=2;fontSize=12" vertex="1" parent="1">
          <mxGeometry x="240" y="650" width="240" height="40" as="geometry" />
        </mxCell>
        <mxCell id="Jhbk-T6yyRJ1bSmUcefI-36" value="Enter Your Query" style="rounded=1;arcSize=9;align=left;spacingLeft=5;strokeColor=#4C9AFF;html=1;strokeWidth=2;fontSize=12" vertex="1" parent="1">
          <mxGeometry x="200" y="700" width="280" height="70" as="geometry" />
        </mxCell>
        <mxCell id="Jhbk-T6yyRJ1bSmUcefI-38" value="Thread 1" style="rounded=1;arcSize=9;align=left;spacingLeft=5;strokeColor=#4C9AFF;html=1;strokeWidth=2;fontSize=12" vertex="1" parent="1">
          <mxGeometry x="200" y="820" width="280" height="19" as="geometry" />
        </mxCell>
        <mxCell id="Jhbk-T6yyRJ1bSmUcefI-39" value="Thread 1" style="rounded=1;arcSize=9;align=left;spacingLeft=5;strokeColor=#4C9AFF;html=1;strokeWidth=2;fontSize=12" vertex="1" parent="1">
          <mxGeometry x="200" y="850" width="280" height="19" as="geometry" />
        </mxCell>
        <mxCell id="Jhbk-T6yyRJ1bSmUcefI-40" value="Thread 1" style="rounded=1;arcSize=9;align=left;spacingLeft=5;strokeColor=#4C9AFF;html=1;strokeWidth=2;fontSize=12" vertex="1" parent="1">
          <mxGeometry x="200" y="877" width="280" height="19" as="geometry" />
        </mxCell>
        <mxCell id="Jhbk-T6yyRJ1bSmUcefI-44" value="History" style="text;fontSize=14;verticalAlign=middle;strokeColor=none;fillColor=none;whiteSpace=wrap;html=1;" vertex="1" parent="1">
          <mxGeometry x="200" y="775" width="280" height="30" as="geometry" />
        </mxCell>
        <mxCell id="Jhbk-T6yyRJ1bSmUcefI-45" value="" style="dashed=0;shape=line;strokeWidth=2;noLabel=1;strokeColor=#0C8CF2;opacity=50;" vertex="1" parent="1">
          <mxGeometry x="200" y="800" width="280" height="10" as="geometry" />
        </mxCell>
        <mxCell id="Jhbk-T6yyRJ1bSmUcefI-48" value="" style="endArrow=classic;startArrow=classic;html=1;rounded=0;exitX=0.5;exitY=0;exitDx=0;exitDy=0;" edge="1" parent="1" source="Jhbk-T6yyRJ1bSmUcefI-47">
          <mxGeometry width="50" height="50" relative="1" as="geometry">
            <mxPoint x="500" y="750" as="sourcePoint" />
            <mxPoint x="340" y="580" as="targetPoint" />
          </mxGeometry>
        </mxCell>
        <mxCell id="Jhbk-T6yyRJ1bSmUcefI-49" value="" style="html=1;verticalLabelPosition=bottom;align=center;labelBackgroundColor=#ffffff;verticalAlign=top;strokeWidth=2;strokeColor=#0080F0;shadow=0;dashed=0;shape=mxgraph.ios7.icons.user;" vertex="1" parent="1">
          <mxGeometry x="321.54" y="1000" width="38.46" height="40" as="geometry" />
        </mxCell>
        <mxCell id="Jhbk-T6yyRJ1bSmUcefI-50" value="" style="endArrow=classic;startArrow=classic;html=1;rounded=0;entryX=0.5;entryY=1;entryDx=0;entryDy=0;exitX=0.501;exitY=-0.085;exitDx=0;exitDy=0;exitPerimeter=0;" edge="1" parent="1" source="Jhbk-T6yyRJ1bSmUcefI-49" target="Jhbk-T6yyRJ1bSmUcefI-47">
          <mxGeometry width="50" height="50" relative="1" as="geometry">
            <mxPoint x="500" y="950" as="sourcePoint" />
            <mxPoint x="550" y="900" as="targetPoint" />
          </mxGeometry>
        </mxCell>
      </root>
    </mxGraphModel>
  </diagram>
</mxfile>
